<svg id="Capa_1" enable-background="new 0 0 470.578 470.578" height="512" viewBox="0 0 470.578 470.578" width="512" xmlns="http://www.w3.org/2000/svg"><g><path d="m470.578 206.704v262.945h-470.475l167.802-132.503-167.905-130.442 235.289-205.774z" fill="#eab54e"/><path d="m45.382 49.537h377.237v312.068h-377.237z" fill="#eeefee"/><path d="m302.674 337.146 167.801 132.503h.103v-262.945z" fill="#f6c863"/><path d="m167.905 337.146-167.802 132.503h-.103v-262.945z" fill="#f6c863"/><path d="m470.475 469.649h-470.372l167.796-132.503h134.78z" fill="#eab54e"/><path d="m271.443 267.03c-13.569 6.958-28.684 10.352-43.924 9.865-40.475 0-74.776-29.606-74.776-76.985 0-50.834 35.293-94.753 90.099-94.753 42.926 0 71.798 30.106 71.798 71.316 0 37.009-20.723 58.719-43.924 58.719-9.865 0-18.995-6.663-18.266-21.71h-.987c-8.608 14.559-19.982 21.71-34.788 21.71-14.318 0-26.651-11.592-26.651-31.081-.117-32.182 25.876-58.366 58.058-58.484.136-.001.272-.001.408 0 9.063-.137 18.055 1.623 26.398 5.165l-8.39 44.665c-3.707 18.754-.746 27.385 7.392 27.638 12.585.241 26.651-16.533 26.651-45.158 0-35.787-21.469-61.445-59.712-61.445-40.223 0-74.03 31.827-74.03 81.927 0 41.21 26.903 66.627 63.419 66.627 12.949.302 25.766-2.668 37.262-8.637zm-13.572-106.597c-4.006-1.176-8.163-1.756-12.338-1.722-21.721 0-39.242 20.482-39.242 44.412 0 10.858 5.435 18.754 16.287 18.754 14.318 0 27.397-18.266 30.106-33.555z" fill="#575b6d"/></g></svg>