<?xml version="1.0" encoding="iso-8859-1"?>
<!-- Generator: Adobe Illustrator 19.0.0, SVG Export Plug-In . SVG Version: 6.00 Build 0)  -->
<svg version="1.1" id="Capa_1" xmlns="http://www.w3.org/2000/svg" xmlns:xlink="http://www.w3.org/1999/xlink" x="0px" y="0px"
	 viewBox="0 0 512 512" style="enable-background:new 0 0 512 512;" xml:space="preserve">
<path style="fill:#FC8B75;" d="M62.294,98.297v170.707c0,106.538,87.168,193.707,193.707,193.707l0,0
	c106.538,0,193.707-87.168,193.707-193.707V98.297C344.029,152.643,168.031,152.674,62.294,98.297z"/>
<path style="fill:#EA7363;" d="M112.297,269.004V118.51c-17.856-5.597-34.672-12.33-50.003-20.213v170.707
	c0,106.538,87.168,193.707,193.707,193.707l0,0c8.469,0,16.812-0.555,25.002-1.623C186.16,448.727,112.297,367.075,112.297,269.004z
	"/>
<path style="fill:#F99D91;" d="M256.001,334.252c-4.142,0-7.5-3.357-7.5-7.5V139.064c0-4.142,3.358-7.5,7.5-7.5
	c4.142,0,7.5,3.358,7.5,7.5v187.688C263.501,330.894,260.143,334.252,256.001,334.252z"/>
<path style="fill:#656566;" d="M1.73,61.582c-2.646-3.187-2.208-7.916,0.979-10.563s7.915-2.208,10.562,0.979
	c19.073,22.968,51.511,42.652,93.808,56.922c135.887,45.844,328.279,19.392,391.65-56.922c2.647-3.187,7.375-3.625,10.563-0.979
	c3.187,2.646,3.625,7.375,0.979,10.563C416.362,174.671,95.706,174.752,1.73,61.582z"/>
<g>
</g>
<g>
</g>
<g>
</g>
<g>
</g>
<g>
</g>
<g>
</g>
<g>
</g>
<g>
</g>
<g>
</g>
<g>
</g>
<g>
</g>
<g>
</g>
<g>
</g>
<g>
</g>
<g>
</g>
</svg>
