<?xml version="1.0" encoding="iso-8859-1"?>
<!-- Generator: Adobe Illustrator 19.0.0, SVG Export Plug-In . SVG Version: 6.00 Build 0)  -->
<svg version="1.1" id="Capa_1" xmlns="http://www.w3.org/2000/svg" xmlns:xlink="http://www.w3.org/1999/xlink" x="0px" y="0px"
	 viewBox="0 0 496 496" style="enable-background:new 0 0 496 496;" xml:space="preserve">
<path style="fill:#CF142B;" d="M0,304.8v64.8c0,27.2,21.6,48.8,48,48.8h400c26.4,0,48-21.6,48-48.8v-64.8H0z"/>
<path style="fill:#FFCC00;" d="M448,77.6H48c-26.4,0-48,21.6-48,48.8v64.8h496v-64.8C496,99.2,474.4,77.6,448,77.6z"/>
<rect y="189.6" style="fill:#00247D;" width="496" height="116"/>
<path style="fill:#B70B28;" d="M448,418.4c26.4,0,48-21.6,48-48.8v-64.8H315.2L448,418.4z"/>
<path style="fill:#FFBC00;" d="M448,77.6H48l132.8,113.6H496v-64.8C496,99.2,474.4,77.6,448,77.6z"/>
<polygon style="fill:#001B51;" points="316,306.4 496,306.4 496,189.6 180,189.6 "/>
<path style="fill:#FFAA00;" d="M448,77.6H48l370.4,113.6H496v-64.8C496,99.2,474.4,77.6,448,77.6z"/>
<polygon style="fill:#00163A;" points="496,214.4 496,189.6 414.4,189.6 "/>
<path style="fill:#A00A2B;" d="M496,369.6c0,27.2-21.6,48.8-48,48.8H48c-26.4,0-48-21.6-48-48.8"/>
<g>
	<polygon style="fill:#D3D8E2;" points="232,208.8 226.4,198.4 224.8,209.6 214.4,212 224,216.8 222.4,227.2 230.4,219.2 240,224 
		235.2,214.4 242.4,206.4 	"/>
	<polygon style="fill:#D3D8E2;" points="271.2,209.6 269.6,199.2 264.8,208.8 253.6,207.2 261.6,214.4 256,224.8 266.4,220 
		273.6,228 272,216.8 282.4,212 	"/>
	<polygon style="fill:#D3D8E2;" points="307.2,232 318.4,230.4 308.8,224.8 310.4,214.4 302.4,221.6 292.8,216 297.6,226.4 
		288.8,233.6 300,232.8 304.8,242.4 	"/>
	<polygon style="fill:#D3D8E2;" points="334.4,256.8 345.6,260 338.4,251.2 344,241.6 333.6,245.6 326.4,237.6 327.2,248.8 
		316.8,252.8 328,255.2 328.8,266.4 	"/>
	<polygon style="fill:#D3D8E2;" points="356.8,286.4 365.6,279.2 354.4,280 351.2,268.8 348,280 336.8,280 345.6,286.4 342.4,296.8 
		351.2,290.4 360,296.8 	"/>
</g>
<g>
	<polygon style="fill:#FFFFFF;" points="148,280 144.8,269.6 141.6,280 130.4,279.2 139.2,286.4 135.2,296.8 144.8,290.4 
		153.6,297.6 150.4,286.4 159.2,280 	"/>
	<polygon style="fill:#FFFFFF;" points="168.8,248 169.6,237.6 162.4,245.6 152,241.6 158.4,251.2 151.2,259.2 161.6,256.8 
		167.2,266.4 168,255.2 179.2,252.8 	"/>
	<polygon style="fill:#FFFFFF;" points="198.4,225.6 203.2,216 193.6,221.6 185.6,213.6 188,224.8 178.4,230.4 188.8,231.2 
		191.2,242.4 196,232 207.2,233.6 	"/>
</g>
<g>
</g>
<g>
</g>
<g>
</g>
<g>
</g>
<g>
</g>
<g>
</g>
<g>
</g>
<g>
</g>
<g>
</g>
<g>
</g>
<g>
</g>
<g>
</g>
<g>
</g>
<g>
</g>
<g>
</g>
</svg>
